# xmcd
#
# Track frame offsets:
#	150
#	24765
#	46340
#	66590
#	95900
#	119805
#	146525
#	176180
#	195245
#	221910
#	245570
#	276665
#	308655
#
# Disc length: 4373 seconds
#
# Revision: 2
# Processed by: cddbd v1.5.1PL2 Copyright (c) Steve Scherf et al.
# Submitted via: EasyCDDAExtractor 8.0.2.1
#
DISCID=d011130d
DTITLE=Saxon - Turbinhalle Oberhausen 19-01-03 Disc 1
DYEAR=2003
DGENRE=Hard Rock
TTITLE0=Heavy Metal Thunder
TTITLE1=Motorcycle Man
TTITLE2=Stil Fit The Boogie
TTITLE3=Court Of The Crimson King
TTITLE4=This Town Know How To Rock
TTITLE5=The Preacher
TTITLE6=Broken Heroes
TTITLE7=20 000 Feet
TTITLE8=Crusader
TTITLE9=Deeds And Glory
TTITLE10=747 (Strangers In The Night)
TTITLE11=Dallas 1PM
TTITLE12=Battle Cry
EXTD=
EXTT0=
EXTT1=
EXTT2=
EXTT3=
EXTT4=
EXTT5=
EXTT6=
EXTT7=
EXTT8=
EXTT9=
EXTT10=
EXTT11=
EXTT12=
PLAYORDER=
